<svg width="800" height="800" viewBox="0 0 800 800" fill="none" xmlns="http://www.w3.org/2000/svg">
<path fill-rule="evenodd" clip-rule="evenodd" d="M731.46 111.012C735.69 98.9258 732.623 85.4848 723.57 76.4301C714.513 67.3754 701.073 64.3081 688.987 68.5384L61.9996 287.984C19.2573 302.944 16.8292 362.476 58.2103 380.866L308.079 491.919L419.133 741.789C437.523 783.169 497.057 780.743 512.017 737.999L731.46 111.012ZM325.95 426.909L123.702 337.019L645.667 154.333L462.98 676.299L373.09 474.049L490.237 356.903C503.253 343.886 503.253 322.78 490.237 309.762C477.22 296.745 456.113 296.745 443.097 309.762L325.95 426.909Z" fill="#393939"/>
</svg>
