<svg width="800" height="800" viewBox="0 0 800 800" fill="none" xmlns="http://www.w3.org/2000/svg">
<path d="M503.146 708.334C503.271 688.88 503.392 621.359 503.392 594.626C503.392 555.992 490.196 530.713 475.396 517.917C567.275 507.651 663.733 472.655 663.733 313.472C663.733 268.242 647.8 231.242 621.337 202.292C625.575 191.809 639.725 149.667 617.225 92.6257C617.225 92.6257 582.658 81.4924 503.883 135.142C470.917 125.922 435.671 121.359 400.617 121.176C365.558 121.359 330.317 125.926 297.346 135.142C218.571 81.4924 184.008 92.6257 184.008 92.6257C161.508 149.667 175.658 191.809 179.896 202.292C153.433 231.242 137.5 268.242 137.5 313.472C137.5 472.655 233.954 507.651 325.833 517.917C311.037 530.713 297.838 555.992 297.838 594.626C297.838 621.359 297.962 688.88 298.083 708.334M112.5 541.667C153.912 544.597 177.792 582.23 177.792 582.23C214.6 645.559 274.367 627.242 297.854 616.667" stroke="#393939" stroke-width="50" stroke-linecap="round" stroke-linejoin="round"/>
</svg>
