<svg width="800" height="800" viewBox="0 0 800 800" fill="none" xmlns="http://www.w3.org/2000/svg">
<path fill-rule="evenodd" clip-rule="evenodd" d="M702 724H581V497.232C581 435.024 555.378 400.316 509.429 400.316C459.425 400.316 429.75 436.482 429.75 497.232V724H308.75V302.8H429.75V350.166C429.75 350.166 467.714 278.816 553.261 278.816C638.838 278.816 702 334.75 702 450.483V724ZM170.871 235.437C130.063 235.437 97 199.734 97 155.703C97 111.704 130.063 76 170.871 76C211.648 76 244.711 111.704 244.711 155.703C244.741 199.734 211.648 235.437 170.871 235.437ZM97 724H248.25V302.8H97V724Z" fill="#393939"/>
</svg>
